<svg xmlns="http://www.w3.org/2000/svg" width="0" height="0" style="display: none;">
  <defs>

    <symbol id="automatic" viewBox="0 0 20 20" fill="none">
      <path fill="#101828" clip-rule="evenodd" d="M7.5 4.375A1.875 1.875 0 0 1 9.375 2.5h1.25A1.875 1.875 0 0 1 12.5 4.375v1.25A1.875 1.875 0 0 1 10.625 7.5v1.25H17.5a0.625 0.625 0 0 1 0.625 0.625v1.25a0.624 0.624 0 1 1-1.25 0V10h-6.25v0.625a0.624 0.624 0 1 1-1.25 0V10h-6.25v0.625a0.625 0.625 0 1 1-1.25 0v-1.25A0.625 0.625 0 0 1 2.5 8.75h6.875V7.5A1.875 1.875 0 0 1 7.5 5.625zM10.625 6.25a0.625 0.625 0 0 0 0.625-0.625v-1.25a0.625 0.625 0 0 0-0.625-0.625h-1.25A0.625 0.625 0 0 0 8.75 4.375v1.25A0.625 0.625 0 0 0 9.375 6.25zM0 14.375A1.875 1.875 0 0 1 1.875 12.5h1.25A1.875 1.875 0 0 1 5 14.375v1.25A1.875 1.875 0 0 1 3.125 17.5h-1.25A1.875 1.875 0 0 1 0 15.625zM1.875 13.75a0.625 0.625 0 0 0-0.625 0.625v1.25a0.625 0.625 0 0 0 0.625 0.625h1.25a0.625 0.625 0 0 0 0.625-0.625v-1.25a0.625 0.625 0 0 0-0.625-0.625zM7.5 14.375A1.875 1.875 0 0 1 9.375 12.5h1.25a1.875 1.875 0 0 1 1.875 1.875v1.25a1.875 1.875 0 0 1-1.875 1.875h-1.25A1.875 1.875 0 0 1 7.5 15.625zM9.375 13.75a0.625 0.625 0 0 0-0.625 0.625v1.25a0.625 0.625 0 0 0 0.625 0.625h1.25a0.624 0.624 0 0 0 0.625-0.625v-1.25a0.624 0.624 0 0 0-0.625-0.625zM15 14.375a1.875 1.875 0 0 1 1.875-1.875h1.25A1.875 1.875 0 0 1 20 14.375v1.25a1.875 1.875 0 0 1-1.875 1.875h-1.25A1.875 1.875 0 0 1 15 15.625zM16.875 13.75a0.624 0.624 0 0 0-0.625 0.625v1.25a0.624 0.624 0 0 0 0.625 0.625h1.25a0.624 0.624 0 0 0 0.625-0.625v-1.25a0.624 0.624 0 0 0-0.625-0.625z" fill-rule="evenodd" />
    </symbol>

    <symbol id="car" viewBox="0 0 20 20" fill="none">
      <path fill="currentColor" d="M17.488 8.624a0.6 0.6 0 0 0-0.04-0.12L15.973 5.06c-0.34-0.796-1.168-1.31-2.11-1.31H6.137c-0.94 0-1.77 0.514-2.11 1.31L2.55 8.504A0.6 0.6 0 0 0 2.5 8.75v6.875a0.625 0.625 0 0 0 0.625 0.625h1.25A0.625 0.625 0 0 0 5 15.625V15h10v0.625a0.625 0.625 0 0 0 0.625 0.625h1.25a0.624 0.624 0 0 0 0.625-0.625V8.75a0.6 0.6 0 0 0-0.012-0.126M5.625 12.5a1.25 1.25 0 1 1 0-2.5 1.25 1.25 0 0 1 0 2.5M14.375 12.5a1.25 1.25 0 1 1 0-2.5 1.25 1.25 0 0 1 0 2.5M4.073 8.125 5.175 5.553C5.317 5.223 5.703 5 6.137 5h7.726c0.434 0 0.82 0.222 0.962 0.553l1.102 2.572z" />
    </symbol>

    <symbol id="crist" viewBox="0 0 12 12" fill="none">
      <path stroke-width="1.5" stroke="currentColor" stroke-linecap="round" d="M11.25 11.25 0.75 0.75M11.25 0.75 0.75 11.25" />
    </symbol>

    <symbol id="error" viewBox="0 0 20 20" fill="none">
      <path fill="#ec383b" d="M10.713 14.713A0.97 0.97 0 0 0 11 14a0.97 0.97 0 0 0-0.288-0.712A0.97 0.97 0 0 0 10 13a0.96 0.96 0 0 0-0.712 0.288A0.97 0.97 0 0 0 9 14q0 0.423 0.288 0.713T10 15a0.99 0.99 0 0 0 0.713-0.287M10.713 10.712A0.97 0.97 0 0 0 11 10V6a0.97 0.97 0 0 0-0.288-0.712A0.97 0.97 0 0 0 10 5 0.96 0.96 0 0 0 9.288 5.288 0.97 0.97 0 0 0 9 6v4q0 0.425 0.288 0.713T10 11t0.713-0.288M10 20a9.7 9.7 0 0 1-3.9-0.788 10.1 10.1 0 0 1-3.175-2.137q-1.35-1.35-2.137-3.175A9.8 9.8 0 0 1 0 10q0-2.074 0.788-3.9a10.1 10.1 0 0 1 2.137-3.175Q4.273 1.575 6.1 0.788A9.7 9.7 0 0 1 10 0q2.073 0 3.9 0.788a10.1 10.1 0 0 1 3.175 2.137q1.348 1.35 2.138 3.175A9.7 9.7 0 0 1 20 10a9.8 9.8 0 0 1-0.788 3.9 10 10 0 0 1-2.137 3.175 10.2 10.2 0 0 1-3.175 2.138A9.7 9.7 0 0 1 10 20M10 18q3.35 0 5.675-2.325T18 10 15.675 4.325 10 2 4.325 4.325 2 10t2.325 5.675T10 18" />
    </symbol>

    <symbol id="gas-station" viewBox="0 0 20 20" fill="none">
      <g fill="#101828" clip-path="url(#gas_station_a)">
        <path d="M3.75 3.125A0.625 0.625 0 0 1 4.375 2.5h6.25a0.625 0.625 0 0 1 0.625 0.625v6.25A0.625 0.625 0 0 1 10.625 10h-6.25A0.625 0.625 0 0 1 3.75 9.375z" />
        <path d="M1.25 2.5A2.5 2.5 0 0 1 3.75 0h7.5a2.5 2.5 0 0 1 2.5 2.5v10a2.5 2.5 0 0 1 2.5 2.5v0.625a0.624 0.624 0 1 0 1.25 0V10h-0.625a0.625 0.625 0 0 1-0.625-0.625V5.469a0.625 0.625 0 0 1 0.625-0.625h1.869c-0.014-0.595-0.067-1.118-0.252-1.528A1.2 1.2 0 0 0 18 2.744C17.77 2.606 17.42 2.5 16.875 2.5a0.625 0.625 0 1 1 0-1.25q1.057-3e-3 1.765 0.42c0.479 0.285 0.793 0.689 0.992 1.134C20.002 3.623 20 4.635 20 5.405v3.969A0.625 0.625 0 0 1 19.375 10H18.75v5.625a1.875 1.875 0 1 1-3.75 0V15a1.25 1.25 0 0 0-1.25-1.25v5h0.625a0.624 0.624 0 1 1 0 1.25H0.625a0.625 0.625 0 1 1 0-1.25H1.25zM12.5 2.5a1.25 1.25 0 0 0-1.25-1.25h-7.5A1.25 1.25 0 0 0 2.5 2.5v16.25h10z" />
      </g>
      <defs>
        <clipPath id="gas_station_a">
          <path fill="#fff" d="M0 0h20v20H0z" />
        </clipPath>
      </defs>
    </symbol>

    <symbol id="logo" viewBox="0 0 136 15" fill="none">
      <path fill="#475467" d="M135.393 7.188h-3.608a1 1 0 0 0-0.235-0.576 1.3 1.3 0 0 0-0.532-0.369 1.8 1.8 0 0 0-0.711-0.135q-0.504 0-0.866 0.185-0.363 0.184-0.355 0.525-7e-3 0.241 0.206 0.448 0.22 0.206 0.845 0.32l2.216 0.397q1.675 0.306 2.493 1.03 0.823 0.717 0.831 1.925-8e-3 1.163-0.696 2.024-0.683 0.852-1.868 1.32-1.18 0.463-2.692 0.462-2.5 0-3.913-1.022-1.407-1.023-1.57-2.7h3.892q0.079 0.52 0.511 0.803 0.44 0.277 1.108 0.277 0.54 0 0.888-0.184 0.356-0.185 0.362-0.526-7e-3-0.312-0.312-0.497-0.299-0.185-0.938-0.298l-1.931-0.341q-1.67-0.292-2.5-1.108t-0.824-2.102q-7e-3-1.137 0.596-1.925 0.61-0.795 1.74-1.208 1.137-0.419 2.692-0.419 2.365 0 3.729 0.98 1.37 0.98 1.442 2.714M116.415 11.96l0.028-4.659h0.512l2.642-3.665H124l-4.432 5.71h-1.108zM112.892 14.545V0h3.92v14.546zM119.625 14.545l-2.5-4.318 2.557-2.784 4.432 7.103zM105.619 14.744q-1.776 0-3.04-0.703a4.84 4.84 0 0 1-1.939-1.974q-0.675-1.272-0.675-2.948t0.675-2.94a4.8 4.8 0 0 1 1.939-1.974q1.264-0.71 3.04-0.71 1.605 0 2.777 0.582 1.179 0.575 1.825 1.633 0.647 1.051 0.653 2.472h-3.636q-0.078-0.86-0.497-1.307-0.412-0.454-1.065-0.454-0.512 0-0.895 0.298-0.384 0.291-0.597 0.888-0.213 0.589-0.213 1.484t0.213 1.492q0.213 0.588 0.597 0.887 0.383 0.291 0.895 0.291 0.432 0 0.767-0.198 0.333-0.207 0.539-0.597 0.213-0.398 0.256-0.966h3.636q-0.021 1.442-0.66 2.514-0.64 1.066-1.811 1.648-1.165 0.582-2.784 0.582M94.049 9.773V3.636h3.92v10.91h-3.721v-2.074h-0.114a3.1 3.1 0 0 1-1.243 1.633q-0.888 0.582-2.11 0.583-1.144 0-2.002-0.526a3.6 3.6 0 0 1-1.328-1.449q-0.469-0.922-0.476-2.116v-6.96h3.92v6.136q7e-3 0.81 0.412 1.271 0.412 0.462 1.15 0.462 0.492 0 0.846-0.206 0.363-0.213 0.554-0.597 0.2-0.39 0.192-0.93M77.903 14.546V3.636h3.807V5.71h0.113q0.3-1.15 0.945-1.683a2.34 2.34 0 0 1 1.527-0.533q0.255 0 0.504 0.043 0.255 0.036 0.49 0.107v3.345a3.5 3.5 0 0 0-0.717-0.15 7 7 0 0 0-0.731-0.05q-0.576 0-1.037 0.264-0.455 0.255-0.718 0.724-0.263 0.462-0.263 1.087v5.682zM64.45 3.182V0h12.643v3.182h-4.375v11.364h-3.892V3.182z" />
      <path fill="#101828" d="M62.508 0v14.546h-3.92V0zM51.247 14.744q-1.748 0-3.012-0.667a4.68 4.68 0 0 1-1.939-1.932q-0.675-1.264-0.674-3.026 0-1.69 0.681-2.954a4.87 4.87 0 0 1 1.925-1.967q1.243-0.704 2.933-0.704 1.236 0 2.238 0.384a4.7 4.7 0 0 1 1.711 1.115q0.71 0.724 1.094 1.761t0.384 2.337v0.91h-9.745V7.84h6.137a1.5 1.5 0 0 0-0.242-0.824 1.54 1.54 0 0 0-0.618-0.561 1.8 1.8 0 0 0-0.873-0.206 1.9 1.9 0 0 0-0.874 0.206 1.65 1.65 0 0 0-0.64 0.554 1.56 1.56 0 0 0-0.248 0.831v2.33q0 0.525 0.22 0.937t0.633 0.646q0.411 0.235 0.994 0.235 0.405 0 0.739-0.114 0.34-0.114 0.582-0.327 0.241-0.22 0.355-0.525h3.58a4.1 4.1 0 0 1-0.874 1.974q-0.69 0.831-1.825 1.293-1.13 0.454-2.642 0.454M44.836 3.636l-3.664 10.91h-4.546l-3.665-10.91h4.12l1.761 7.216h0.114l1.761-7.216zM25.056 14.716q-1.044 0-1.847-0.34a2.78 2.78 0 0 1-1.25-1.052q-0.454-0.703-0.454-1.79 0-0.894 0.305-1.527a2.75 2.75 0 0 1 0.853-1.044q0.546-0.405 1.27-0.618a7.7 7.7 0 0 1 1.578-0.277q0.915-0.07 1.47-0.17 0.561-0.107 0.81-0.291a0.6 0.6 0 0 0 0.248-0.505V7.074q0-0.426-0.327-0.653t-0.838-0.228q-0.561 0-0.916 0.249-0.348 0.241-0.419 0.746h-3.608a3.7 3.7 0 0 1 0.632-1.833q0.568-0.844 1.655-1.35 1.086-0.51 2.713-0.51 1.172 0 2.102 0.276 0.93 0.27 1.584 0.76 0.654 0.483 0.994 1.137 0.348 0.646 0.348 1.406v7.472h-3.664V13.01h-0.086a3.15 3.15 0 0 1-0.795 0.988q-0.462 0.375-1.058 0.547-0.59 0.17-1.3 0.17M26.334 12.243q0.448 0 0.838-0.184 0.398-0.184 0.647-0.533 0.248-0.348 0.248-0.845v-0.91a5.059 5.059 0 0 1-0.703 0.227 9.72 9.72 0 0 1-0.86 0.17 2.2 2.2 0 0 0-0.745 0.236q-0.284 0.156-0.426 0.39a1 1 0 0 0-0.135 0.512q0 0.455 0.32 0.696t0.816 0.241M13.452 14.546V3.636h3.807V5.71h0.114q0.297-1.15 0.944-1.683a2.34 2.34 0 0 1 1.527-0.533q0.255 0 0.505 0.043 0.255 0.036 0.49 0.107v3.345a3.5 3.5 0 0 0-0.718-0.15 7 7 0 0 0-0.731-0.05q-0.576 0-1.037 0.264-0.454 0.255-0.718 0.724-0.262 0.462-0.262 1.087v5.682zM0 3.182V0h12.642v3.182H8.267v11.364H4.375V3.182z" />
    </symbol>

  <symbol id="map" viewBox="0 0 20 20">
  <path 
    fill="currentColor" 
    clip-rule="evenodd" 
    d="M19.771 0.141A0.62 0.62 0 0 1 20 0.625v17.5a0.625 0.625 0 0 1-0.503 0.612l-6.25 1.25a0.6 0.6 0 0 1-0.245 0l-6.127-1.225-6.127 1.225A0.625 0.625 0 0 1 0 19.375v-17.5a0.625 0.625 0 0 1 0.502-0.613l6.25-1.25a0.6 0.6 0 0 1 0.245 0l6.128 1.225 6.128-1.225a0.63 0.63 0 0 1 0.518 0.129M12.5 2.387l-5-1v16.225l5 1zM13.75 18.612l5-1V1.387l-5 1zM6.25 17.612V1.387l-5 1v16.225z"
    fill-rule="evenodd"
  />
</symbol>

    <symbol id="rating" viewBox="0 0 15 14" fill="none">
      <path fill="#dadde1" d="M6.648 0.267a0.5 0.5 0 0 1 0.884 0L9.42 3.846a0.5 0.5 0 0 0 0.357 0.259l3.988 0.69a0.5 0.5 0 0 1 0.273 0.84l-2.82 2.903a0.5 0.5 0 0 0-0.137 0.42l0.576 4.005a0.5 0.5 0 0 1-0.715 0.52L7.31 11.696a0.5 0.5 0 0 0-0.44 0l-3.632 1.785a0.5 0.5 0 0 1-0.716-0.52l0.576-4.005a0.5 0.5 0 0 0-0.136-0.42l-2.82-2.899a0.5 0.5 0 0 1 0.273-0.841l3.987-0.69a0.5 0.5 0 0 0 0.357-0.26z" />
    </symbol>

    <symbol id="star" viewBox="0 0 16 16" fill="none">
      <path fill="#ffc531" d="M7.558 0.838a0.5 0.5 0 0 1 0.884 0l1.889 3.579a0.5 0.5 0 0 0 0.356 0.26l3.988 0.69a0.5 0.5 0 0 1 0.273 0.84l-2.82 2.902a0.5 0.5 0 0 0-0.137 0.42l0.576 4.005a0.5 0.5 0 0 1-0.715 0.52L8.22 12.268a0.5 0.5 0 0 0-0.442 0l-3.63 1.786a0.5 0.5 0 0 1-0.716-0.52l0.576-4.005a0.5 0.5 0 0 0-0.137-0.42l-2.82-2.902a0.5 0.5 0 0 1 0.273-0.84l3.988-0.69a0.5 0.5 0 0 0 0.357-0.26z" />
    </symbol>

  </defs>
</svg>